HIERARCHY
ROOT hips
{
  OFFSET 0 10.074487846421558 1.314567655973056
  CHANNELS 6 Xposition Yposition Zposition Yrotation Xrotation Zrotation
  JOINT spine
  {
    OFFSET -7.042773748992335e-31 0.5690686926897363 0
    CHANNELS 3 Yrotation Xrotation Zrotation
    JOINT chest
    {
      OFFSET 0 1.2435964857087873 0
      CHANNELS 3 Yrotation Xrotation Zrotation
      JOINT upperChest
      {
        OFFSET 0 1.194994586872362 0
        CHANNELS 3 Yrotation Xrotation Zrotation
        JOINT neck
        {
          OFFSET 0 1.515103653293861 0
          CHANNELS 3 Yrotation Xrotation Zrotation
          JOINT head
          {
            OFFSET 0 0.8111851616465653 0
            CHANNELS 3 Yrotation Xrotation Zrotation
            JOINT leftEye
            {
              OFFSET 0.27141371691966987 0.7490044407698551 0.18219031050045686
              CHANNELS 3 Yrotation Xrotation Zrotation
              End Site
              {
                OFFSET 0.27141371691966987 0.7490044407698551 0.18219031050045686
              }
            }
            JOINT rightEye
            {
              OFFSET -0.2714136877644943 0.7490044019380786 0.18219040411850668
              CHANNELS 3 Yrotation Xrotation Zrotation
              End Site
              {
                OFFSET -0.2714136877644943 0.7490044019380786 0.18219040411850668
              }
            }
          }
        }
        JOINT leftShoulder
        {
          OFFSET 0.4137993136083964 1.1593397335613034 0
          CHANNELS 3 Yrotation Xrotation Zrotation
          JOINT leftUpperArm
          {
            OFFSET 1.0096991868951026 0 0
            CHANNELS 3 Yrotation Xrotation Zrotation
            JOINT leftLowerArm
            {
              OFFSET 2.418380967671622 0 0
              CHANNELS 3 Yrotation Xrotation Zrotation
              JOINT leftHand
              {
                OFFSET 2.361538296260114 0 0
                CHANNELS 3 Yrotation Xrotation Zrotation
                JOINT leftIndexProximal
                {
                  OFFSET 0.7243699271447109 0.08118285989887508 0.2022042461579805
                  CHANNELS 3 Yrotation Xrotation Zrotation
                  JOINT leftIndexIntermediate
                  {
                    OFFSET 0.36553107045252053 -0.010567764853200323 -0.014102670024158437
                    CHANNELS 3 Yrotation Xrotation Zrotation
                    JOINT leftIndexDistal
                    {
                      OFFSET 0.22505120770060527 -0.007821041598631284 -0.007511611613336286
                      CHANNELS 3 Yrotation Xrotation Zrotation
                      End Site
                      {
                        OFFSET 0.22505120770060527 -0.007821041598631284 -0.007511611613336286
                      }
                    }
                  }
                }
                JOINT leftLittleProximal
                {
                  OFFSET 0.6721063881632002 0.08118279568569564 -0.3209324945517917
                  CHANNELS 3 Yrotation Xrotation Zrotation
                  JOINT leftLittleIntermediate
                  {
                    OFFSET 0.34587329423120616 5.3042709780015684e-8 -5.929537746918179e-8
                    CHANNELS 3 Yrotation Xrotation Zrotation
                    JOINT leftLittleDistal
                    {
                      OFFSET 0.1992782500022232 0.0030983716482184676 0.0038310952896712935
                      CHANNELS 3 Yrotation Xrotation Zrotation
                      End Site
                      {
                        OFFSET 0.1992782500022232 0.0030983716482184676 0.0038310952896712935
                      }
                    }
                  }
                }
                JOINT leftMiddleProximal
                {
                  OFFSET 0.7301229696860206 0.08118412848995638 0.022516891543707507
                  CHANNELS 3 Yrotation Xrotation Zrotation
                  JOINT leftMiddleIntermediate
                  {
                    OFFSET 0.4076277831942017 -0.000001240188283180288 -1.6203245635504349e-7
                    CHANNELS 3 Yrotation Xrotation Zrotation
                    JOINT leftMiddleDistal
                    {
                      OFFSET 0.2514739255593972 0.0000013850839168938478 -1.8644847207816007e-8
                      CHANNELS 3 Yrotation Xrotation Zrotation
                      End Site
                      {
                        OFFSET 0.2514739255593972 0.0000013850839168938478 -1.8644847207816007e-8
                      }
                    }
                  }
                }
                JOINT leftRingProximal
                {
                  OFFSET 0.7218060861525873 0.08118280646416753 -0.1494689818508163
                  CHANNELS 3 Yrotation Xrotation Zrotation
                  JOINT leftRingIntermediate
                  {
                    OFFSET 0.3781267508900358 0.000001373626195677602 -1.4143108284514483e-7
                    CHANNELS 3 Yrotation Xrotation Zrotation
                    JOINT leftRingDistal
                    {
                      OFFSET 0.21814333268795483 -0.0027137626495670197 -0.004991775417842292
                      CHANNELS 3 Yrotation Xrotation Zrotation
                      End Site
                      {
                        OFFSET 0.21814333268795483 -0.0027137626495670197 -0.004991775417842292
                      }
                    }
                  }
                }
                JOINT leftThumbProximal
                {
                  OFFSET 0.10743676110519984 -0.16423092885053192 -0.07708859146227388
                  CHANNELS 3 Yrotation Xrotation Zrotation
                  JOINT leftThumbIntermediate
                  {
                    OFFSET 0.40350402100066307 -0.01735099334274981 0.315629965828783
                    CHANNELS 3 Yrotation Xrotation Zrotation
                    JOINT leftThumbDistal
                    {
                      OFFSET 0.2320014489535681 -0.01842351809041043 0.21271298411519196
                      CHANNELS 3 Yrotation Xrotation Zrotation
                      End Site
                      {
                        OFFSET 0.2320014489535681 -0.01842351809041043 0.21271298411519196
                      }
                    }
                  }
                }
              }
            }
          }
        }
        JOINT rightShoulder
        {
          OFFSET -0.41379931360839656 1.1593397335613034 0
          CHANNELS 3 Yrotation Xrotation Zrotation
          JOINT rightUpperArm
          {
            OFFSET -1.0096991868951024 0 0
            CHANNELS 3 Yrotation Xrotation Zrotation
            JOINT rightLowerArm
            {
              OFFSET -2.4183809676716232 0 0
              CHANNELS 3 Yrotation Xrotation Zrotation
              JOINT rightHand
              {
                OFFSET -2.3615382962601132 0 0
                CHANNELS 3 Yrotation Xrotation Zrotation
                JOINT rightIndexProximal
                {
                  OFFSET -0.7243699271447109 0.08118285989887508 0.2022042461579805
                  CHANNELS 3 Yrotation Xrotation Zrotation
                  JOINT rightIndexIntermediate
                  {
                    OFFSET -0.36553107045252053 -0.010567764853200323 -0.014102670024158437
                    CHANNELS 3 Yrotation Xrotation Zrotation
                    JOINT rightIndexDistal
                    {
                      OFFSET -0.22505120770060527 -0.007821041598631284 -0.007511611613336286
                      CHANNELS 3 Yrotation Xrotation Zrotation
                      End Site
                      {
                        OFFSET -0.22505120770060527 -0.007821041598631284 -0.007511611613336286
                      }
                    }
                  }
                }
                JOINT rightLittleProximal
                {
                  OFFSET -0.6721063881632002 0.08118279568569564 -0.3209324945517917
                  CHANNELS 3 Yrotation Xrotation Zrotation
                  JOINT rightLittleIntermediate
                  {
                    OFFSET -0.34587329423120616 5.3042709780015684e-8 -5.929537746918179e-8
                    CHANNELS 3 Yrotation Xrotation Zrotation
                    JOINT rightLittleDistal
                    {
                      OFFSET -0.1992782500022232 0.0030983716482184676 0.0038310952896712935
                      CHANNELS 3 Yrotation Xrotation Zrotation
                      End Site
                      {
                        OFFSET -0.1992782500022232 0.0030983716482184676 0.0038310952896712935
                      }
                    }
                  }
                }
                JOINT rightMiddleProximal
                {
                  OFFSET -0.7301229696860206 0.08118412848995638 0.022516891543707507
                  CHANNELS 3 Yrotation Xrotation Zrotation
                  JOINT rightMiddleIntermediate
                  {
                    OFFSET -0.4076277831942017 -0.000001240188283180288 -1.6203245635504349e-7
                    CHANNELS 3 Yrotation Xrotation Zrotation
                    JOINT rightMiddleDistal
                    {
                      OFFSET -0.2514739255593972 0.0000013850839168938478 -1.8644847207816007e-8
                      CHANNELS 3 Yrotation Xrotation Zrotation
                      End Site
                      {
                        OFFSET -0.2514739255593972 0.0000013850839168938478 -1.8644847207816007e-8
                      }
                    }
                  }
                }
                JOINT rightRingProximal
                {
                  OFFSET -0.7218060861525873 0.08118280646416753 -0.1494689818508163
                  CHANNELS 3 Yrotation Xrotation Zrotation
                  JOINT rightRingIntermediate
                  {
                    OFFSET -0.3781267508900358 0.000001373626195677602 -1.4143108284514483e-7
                    CHANNELS 3 Yrotation Xrotation Zrotation
                    JOINT rightRingDistal
                    {
                      OFFSET -0.21814333268795483 -0.0027137626495670197 -0.004991775417842292
                      CHANNELS 3 Yrotation Xrotation Zrotation
                      End Site
                      {
                        OFFSET -0.21814333268795483 -0.0027137626495670197 -0.004991775417842292
                      }
                    }
                  }
                }
                JOINT rightThumbProximal
                {
                  OFFSET -0.10743676110519984 -0.16423092885053192 -0.07708859146227388
                  CHANNELS 3 Yrotation Xrotation Zrotation
                  JOINT rightThumbIntermediate
                  {
                    OFFSET -0.40350402100066307 -0.01735099334274981 0.315629965828783
                    CHANNELS 3 Yrotation Xrotation Zrotation
                    JOINT rightThumbDistal
                    {
                      OFFSET -0.2320014489535681 -0.01842351809041043 0.21271298411519196
                      CHANNELS 3 Yrotation Xrotation Zrotation
                      End Site
                      {
                        OFFSET -0.2320014489535681 -0.01842351809041043 0.21271298411519196
                      }
                    }
                  }
                }
              }
            }
          }
        }
      }
    }
  }
  JOINT leftUpperLeg
  {
    OFFSET 0.8487163290887698 -0.43932186100277326 0
    CHANNELS 3 Yrotation Xrotation Zrotation
    JOINT leftLowerLeg
    {
      OFFSET 0 -3.882816707004296 0
      CHANNELS 3 Yrotation Xrotation Zrotation
      JOINT leftFoot
      {
        OFFSET 0 -4.570431027442807 0.004629272230691511
        CHANNELS 3 Yrotation Xrotation Zrotation
        JOINT leftToes
        {
          OFFSET 0 -0.698875637876343 1.214565366696912
          CHANNELS 3 Yrotation Xrotation Zrotation
          End Site
          {
            OFFSET 0 -0.698875637876343 1.214565366696912
          }
        }
      }
    }
  }
  JOINT rightUpperLeg
  {
    OFFSET -0.8487163290887698 -0.43932186100277326 0
    CHANNELS 3 Yrotation Xrotation Zrotation
    JOINT rightLowerLeg
    {
      OFFSET 0 -3.882816707004296 0
      CHANNELS 3 Yrotation Xrotation Zrotation
      JOINT rightFoot
      {
        OFFSET 0 -4.570431027442807 0.004629272230691511
        CHANNELS 3 Yrotation Xrotation Zrotation
        JOINT rightToes
        {
          OFFSET 0 -0.698875637876343 1.214565366696912
          CHANNELS 3 Yrotation Xrotation Zrotation
          End Site
          {
            OFFSET 0 -0.698875637876343 1.214565366696912
          }
        }
      }
    }
  }
}
MOTION
Frames: 4
Frame Time: 0.03333333333333333
0.020080942660570145 0.7542274779802973 -0.41198545694351196 -33.39728546161599 -82.45709284890249 30.357896943085297 -0.4056103154404194 5.06847906978854 -0.5503446938136509 -0.17125477020517985 17.522440093345022 2.024130069894914 0 0 0 -0.844248830421383 7.34143712890365 -0.0028229397753876256 -4.013376098761731 24.285957566369834 -5.078157097844644 0 0 0 0 0 0 5.400843414246467 2.227728845655456 -16.394807054283365 -40.47588313025529 26.653445557345357 -49.582054213029444 -84.9299009545404 0.6747542968847173 0.7372684493989579 -12.527093386898274 -17.37031587402469 1.4256516327349844 5.830800558154182 2.2067982819095806 -29.710497533118904 1.5534717176360764 0.24107597333508493 -17.643803660093997 1.5534841995969808 0.24108643215483497 -17.643805287331347 8.255006143101516 1.3755264682932828 -15.927389025692811 1.5534640364292926 0.24108453782778777 -17.643814458637536 1.5534683037664017 0.2410892869857375 -17.64379611602537 9.710164353800321 3.386283252357636 -28.4924958872753 1.583128141203056 0.2506072432248569 -17.9918581460331 1.5549284173571665 0.24154848787824335 -17.660997630373288 8.71951440434899 2.4322231262714737 -23.96025718603158 1.5524862889450335 0.24077824382419025 -17.63239609170784 1.5534824926621646 0.2410871525327262 -17.64383442848768 7.069543083662318 -2.7120209671609254 8.478374473234135 15.674927776319286 6.168646196281207 3.1480173170607975 20.211613927924198 -4.517586852031522 16.143525645517265 1.2394237599764393 1.7867711413156397 17.16758883035754 41.199593854996664 26.56717185923394 38.17597188433509 97.48944150254165 0.8365878268826987 -0.7338026879651107 22.421660392083755 -33.52095450854517 10.227522009931759 1.0842872083804873 -1.8116293837009698 24.05517090182589 -1.9368914822393355 0.5113999687692353 29.57830239027002 -1.9608989083344515 0.5251343335481501 29.981846672501835 -3.578792529446145 0.2697917349734782 19.33009795017637 -1.6701424089007952 0.37322186476363894 25.191832148089127 -1.6701424089007952 0.3732173823568999 25.191839782441594 -3.8830869620747404 0.39102781695293715 24.1133930252999 -1.9604676160596584 0.5248856081709894 29.974618579174845 -1.9604693226790997 0.5248872624268442 29.974603332801653 -3.601038642005333 0.2776843487667477 19.674751022995267 -1.9604701759888186 0.5248889700457917 29.97461095598831 -1.960472095935684 0.5248850745400686 29.97461391442743 5.600850890935509 -4.631860982857541 -12.592738769597155 -14.560071904208101 6.1787477200988254 -3.5227968923331843 -51.95904263137108 -1.5807806993481277 -21.642671373272147 17.264042896349125 -11.586902391636599 14.69718859797153 4.108983371151832 5.557485996379535 0.3326433543401949 32.07997581428085 21.216980690575458 -11.119961270656251 0.000018636300223992726 -0.630900620910089 -0.0000042748643728616115 -12.955966010933697 -9.37610055620607 -7.163717520925577 -0.3938473857204989 5.021187200491772 -0.004574349503234609 -33.77174469708893 25.485977886077656 11.579681887124185 -0.000004640893212728834 -11.082479051448376 0.000009129010617317972
0.020750422030687332 0.7519090957171137 -0.41188669204711914 -33.620237080360475 -82.4868877321243 30.581610285461423 -0.44139072362322707 5.0291802163297215 -0.5483503321653501 -0.2861241003484358 17.444258118659036 2.0355369974808726 0 0 0 -0.82976348538448 7.434310677815224 -0.014167108986480246 -3.986355624933234 24.73143813169521 -5.198169769965867 0 0 0 0 0 0 5.398156892788115 2.207662515158417 -16.53777582956507 -40.34036586750113 26.866637605405227 -49.49756108886006 -85.01696009262182 0.6758728714176319 0.7373672786872385 -12.50672983337233 -17.464332558735652 1.5187389374420124 5.830800558154182 2.2067982819095806 -29.710497533118904 1.5534717176360764 0.24107597333508493 -17.643803660093997 1.5534841995969808 0.24108643215483497 -17.643805287331347 8.255006143101516 1.3755264682932828 -15.927389025692811 1.5534640364292926 0.24108453782778777 -17.643814458637536 1.5534683037664017 0.2410892869857375 -17.64379611602537 9.710164353800321 3.386283252357636 -28.4924958872753 1.583128141203056 0.2506072432248569 -17.9918581460331 1.5549284173571665 0.24154848787824335 -17.660997630373288 8.71951440434899 2.4322231262714737 -23.96025718603158 1.5524862889450335 0.24077824382419025 -17.63239609170784 1.5534824926621646 0.2410871525327262 -17.64383442848768 7.069543083662318 -2.7120209671609254 8.478374473234135 15.674927776319286 6.168646196281207 3.1480173170607975 20.211613927924198 -4.517586852031522 16.143525645517265 1.3034840570866268 1.74641884036505 16.966546220325103 41.38908810366096 26.54527430663223 38.382866409825986 97.39393215588109 0.8353567143289518 -0.7339670285063956 22.484153023537292 -33.553252384190316 10.158095526884193 1.0842872083804873 -1.8116293837009698 24.05517090182589 -1.9368914822393355 0.5113999687692353 29.57830239027002 -1.9608989083344515 0.5251343335481501 29.981846672501835 -3.578792529446145 0.2697917349734782 19.33009795017637 -1.6701424089007952 0.37322186476363894 25.191832148089127 -1.6701424089007952 0.3732173823568999 25.191839782441594 -3.8830869620747404 0.39102781695293715 24.1133930252999 -1.9604676160596584 0.5248856081709894 29.974618579174845 -1.9604693226790997 0.5248872624268442 29.974603332801653 -3.601038642005333 0.2776843487667477 19.674751022995267 -1.9604701759888186 0.5248889700457917 29.97461095598831 -1.960472095935684 0.5248850745400686 29.97461391442743 5.600850890935509 -4.631860982857541 -12.592738769597155 -14.560071904208101 6.1787477200988254 -3.5227968923331843 -51.95904263137108 -1.5807806993481277 -21.642671373272147 17.292063614904404 -11.484982764686253 14.695146548192483 4.153950367004001 5.413388252346333 0.32342180659454656 32.07165696336906 21.343222885487265 -11.038735344703055 0.000014821213888146162 -0.702220577470386 -0.000011624816215140127 -12.965224350338826 -9.348169552165652 -7.167456973543861 -0.3774838141358216 5.0104680052230535 -0.0034159360248496025 -33.751101267646895 25.473887261393642 11.57265134225443 -0.000012252584502771696 -11.167927958572982 -0.000013734646995797167
0.020824164152145386 0.7507236785418208 -0.41239938139915466 -33.85590278813817 -82.55977073715272 30.837573815947117 -0.4823609272709209 4.953914660536896 -0.551361051206117 -0.41366305740757614 17.25053976633116 2.0274968261001254 0 0 0 -0.8309855209907338 7.530994009425093 -0.01871494657973939 -4.021275225461692 24.975562790705528 -5.2526870545688285 0 0 0 0 0 0 5.1252343990577005 2.143821239874545 -16.557091295951516 -39.95110299747768 27.082535578031738 -49.62990634921502 -85.14871665682499 0.6775808046434305 0.7375126820515705 -12.429672757916592 -17.505795119759213 1.5970511307605548 5.830800558154182 2.2067982819095806 -29.710497533118904 1.5534717176360764 0.24107597333508493 -17.643803660093997 1.5534841995969808 0.24108643215483497 -17.643805287331347 8.255006143101516 1.3755264682932828 -15.927389025692811 1.5534640364292926 0.24108453782778777 -17.643814458637536 1.5534683037664017 0.2410892869857375 -17.64379611602537 9.710164353800321 3.386283252357636 -28.4924958872753 1.583128141203056 0.2506072432248569 -17.9918581460331 1.5549284173571665 0.24154848787824335 -17.660997630373288 8.71951440434899 2.4322231262714737 -23.96025718603158 1.5524862889450335 0.24077824382419025 -17.63239609170784 1.5534824926621646 0.2410871525327262 -17.64383442848768 7.069543083662318 -2.7120209671609254 8.478374473234135 15.674927776319286 6.168646196281207 3.1480173170607975 20.211613927924198 -4.517586852031522 16.143525645517265 1.5044307383892992 1.6703552011547456 16.73026320930698 41.442125758281996 26.536950477525092 38.75026590985126 97.3121122195014 0.8343089161205044 -0.7340992983162526 22.498761741423472 -33.56501011979849 10.15461182751116 1.0842872083804873 -1.8116293837009698 24.05517090182589 -1.9368914822393355 0.5113999687692353 29.57830239027002 -1.9608989083344515 0.5251343335481501 29.981846672501835 -3.578792529446145 0.2697917349734782 19.33009795017637 -1.6701424089007952 0.37322186476363894 25.191832148089127 -1.6701424089007952 0.3732173823568999 25.191839782441594 -3.8830869620747404 0.39102781695293715 24.1133930252999 -1.9604676160596584 0.5248856081709894 29.974618579174845 -1.9604693226790997 0.5248872624268442 29.974603332801653 -3.601038642005333 0.2776843487667477 19.674751022995267 -1.9604701759888186 0.5248889700457917 29.97461095598831 -1.960472095935684 0.5248850745400686 29.97461391442743 5.600850890935509 -4.631860982857541 -12.592738769597155 -14.560071904208101 6.1787477200988254 -3.5227968923331843 -51.95904263137108 -1.5807806993481277 -21.642671373272147 17.29184549791291 -11.390494909568924 14.692376574762752 4.174512840976159 5.387201617043967 0.3211572413355244 32.07684019091488 21.457247763918936 -10.99386979345097 0.000015941543235625102 -0.7465289954476051 -0.00001550202960735478 -12.99226227139762 -9.278394654052727 -7.204380397252281 -0.33825760998199284 5.004202152667293 -0.0005890649136948801 -33.75345053633176 25.46025650191114 11.575816699409737 -1.2819539558267777e-7 -11.255380708725973 -8.194420076761579e-7
0.02013666369020939 0.7499550170427973 -0.41358280181884766 -34.1335713592271 -82.67276215087928 31.151432185774528 -0.5239986851687418 4.847946150784392 -0.5533868107847931 -0.5439681129266145 16.942423397079445 2.014300780682414 0 0 0 -0.8516253651467165 7.630151315085526 0.01746063581301139 -4.161627701969189 25.170416264933277 -5.385952109449954 0 0 0 0 0 0 4.639232214766719 2.041406811164844 -16.471107741504383 -39.387240430877355 27.31155449672777 -49.95585092371739 -85.30076331931232 0.6795238629193207 0.7376742442552031 -12.31327524132023 -17.520244788937305 1.6649668161067392 5.830800558154182 2.2067982819095806 -29.710497533118904 1.5534717176360764 0.24107597333508493 -17.643803660093997 1.5534841995969808 0.24108643215483497 -17.643805287331347 8.255006143101516 1.3755264682932828 -15.927389025692811 1.5534640364292926 0.24108453782778777 -17.643814458637536 1.5534683037664017 0.2410892869857375 -17.64379611602537 9.710164353800321 3.386283252357636 -28.4924958872753 1.583128141203056 0.2506072432248569 -17.9918581460331 1.5549284173571665 0.24154848787824335 -17.660997630373288 8.71951440434899 2.4322231262714737 -23.96025718603158 1.5524862889450335 0.24077824382419025 -17.63239609170784 1.5534824926621646 0.2410871525327262 -17.64383442848768 7.069543083662318 -2.7120209671609254 8.478374473234135 15.674927776319286 6.168646196281207 3.1480173170607975 20.211613927924198 -4.517586852031522 16.143525645517265 1.8220370591436683 1.5631624259438148 16.4580885383798 41.37984644204975 26.5538087196581 39.258951453484585 97.24425701648269 0.833443364780465 -0.7342188145094648 22.472417311513638 -33.56480929456529 10.195576398904358 1.0842872083804873 -1.8116293837009698 24.05517090182589 -1.9368914822393355 0.5113999687692353 29.57830239027002 -1.9608989083344515 0.5251343335481501 29.981846672501835 -3.578792529446145 0.2697917349734782 19.33009795017637 -1.6701424089007952 0.37322186476363894 25.191832148089127 -1.6701424089007952 0.3732173823568999 25.191839782441594 -3.8830869620747404 0.39102781695293715 24.1133930252999 -1.9604676160596584 0.5248856081709894 29.974618579174845 -1.9604693226790997 0.5248872624268442 29.974603332801653 -3.601038642005333 0.2776843487667477 19.674751022995267 -1.9604701759888186 0.5248889700457917 29.97461095598831 -1.960472095935684 0.5248850745400686 29.97461391442743 5.600850890935509 -4.631860982857541 -12.592738769597155 -14.560071904208101 6.1787477200988254 -3.5227968923331843 -51.95904263137108 -1.5807806993481277 -21.642671373272147 17.261807669017127 -11.319844450109407 14.69394082412912 4.168673191686541 5.499493025483776 0.32745440077541316 32.09533573410809 21.546891753648065 -10.991579482390307 -0.00001779785542702423 -0.7302776119286253 -7.207589132035719e-7 -13.03214473422585 -9.172493908068606 -7.270128202700654 -0.2812143142397811 5.003862764747238 0.0035282159870028873 -33.78130013738579 25.453662015460903 11.582918610902944 0.000028273896740241676 -11.301427745551212 -0.000006386831194864217
